<svg width="32" height="32" viewBox="0 0 32 32" fill="none" xmlns="http://www.w3.org/2000/svg">
  <path d="M26.7504 7.71693C26.3714 7.02693 25.792 6.45526 25.0964 6.08693C24.4013 5.71859 23.6234 5.5656 22.8414 5.64693L9.50742 7.28693C8.13742 7.4276 6.9914 8.38426 6.58407 9.71026L3.4014 20.2276C3.25474 20.7303 3.22874 21.261 3.32507 21.777C3.42141 22.293 3.63774 22.7809 3.95607 23.203C4.27441 23.625 4.68673 23.9711 5.16207 24.2169C5.63741 24.4627 6.16274 24.6027 6.7014 24.6276L20.1414 25.4143C20.6827 25.4399 21.224 25.3463 21.7294 25.1397C22.2348 24.933 22.6931 24.6179 23.0747 24.2143L28.0267 18.8663C28.8587 17.9683 29.2427 16.7289 29.0544 15.5083L27.8467 8.9316C27.769 8.49207 27.6073 8.07401 27.3704 7.70426L26.7504 7.71693Z" fill="#3B82F6"/>
  <path d="M25.3744 10.6683C25.2604 10.4543 25.0944 10.2723 24.8924 10.139C24.6904 10.0057 24.4597 9.9251 24.2204 9.9043L19.5397 9.5376C19.0724 9.4963 18.6031 9.6603 18.2457 9.9936L11.2137 16.131C11.072 16.2592 10.9627 16.4182 10.894 16.5953C10.8254 16.7724 10.7992 16.9631 10.817 17.1516C10.8348 17.3402 10.8963 17.5219 10.9967 17.6835C11.097 17.8451 11.2336 17.9824 11.3964 18.0856L15.1657 20.4503C15.3686 20.5807 15.6037 20.6521 15.8447 20.6569C16.0858 20.6617 16.3234 20.5997 16.531 20.4776L24.8764 15.2256C25.0857 15.0991 25.2607 14.9231 25.3869 14.7136C25.5131 14.5041 25.5872 14.2669 25.6037 14.0216L25.7764 11.3523C25.7886 11.1096 25.7231 10.8693 25.5897 10.6623L25.3744 10.6683Z" fill="white"/>
  <circle cx="23" cy="23" r="4" fill="#F28F40"/>
</svg>